<?xml version="1.0" standalone="no"?>
<!DOCTYPE svg PUBLIC "-//W3C//DTD SVG 1.1//EN" "http://www.w3.org/Graphics/SVG/1.1/DTD/svg11.dtd" >
<svg xmlns="http://www.w3.org/2000/svg" xmlns:xlink="http://www.w3.org/1999/xlink" version="1.1" viewBox="-10 -200 609 1400">
   <path fill="currentColor"
d="M269 704l92 -101v-5l-101 -114h-27l-101 98v5l106 117h31zM266 362l80 -81v-6l-80 -78h-27l-77 78v6l77 81h27zM279 800h-52l-179 -189v-54l148 -140l-96 -100v-84l107 -102h90l107 102v84l-103 108l114 123l134 -132v105l-81 79q35 36 71 71l10 27v91h-77v-75l-57 -60z
" />
</svg>
